<?xml version="1.0" encoding="utf-8"?>
<!-- Generator: Adobe Illustrator 24.1.2, SVG Export Plug-In . SVG Version: 6.00 Build 0)  -->
<svg version="1.1" id="Livello_1" xmlns="http://www.w3.org/2000/svg" xmlns:xlink="http://www.w3.org/1999/xlink" x="0px" y="0px"
	 viewBox="0 0 98.83 98.72" style="enable-background:new 0 0 98.83 98.72;" xml:space="preserve">
<style type="text/css">
	.st0{fill:#FEFEFE;}
	.st1{fill:#93E5B8;}
	.st2{fill:#2FA886;}
	.st3{fill:#2FCA76;}
	.st4{fill:#2FCA75;}
	.st5{fill:#C3C4C5;}
	.st6{fill:#2BBB6C;}
	.st7{fill:#2BBB6B;}
	.st8{fill:#2FCA74;}
	.st9{fill:#2BBA6B;}
	.st10{fill:#93E4B8;}
	.st11{fill:#2ABA6B;}
	.st12{fill:#2DC773;}
	.st13{fill:#010303;}
	.st14{fill:#020202;}
</style>
<g>
	<path d="M80.01,0c1.84,1.03,2.03,2.89,2.35,4.69c0.37,2.02,1.6,2.54,3.31,1.39c3.84-2.58,4.42-2.51,7.6,0.93
		c1.53,1.65,1.64,2.68,0.45,4.57c-0.4,0.64-0.86,1.25-1.25,1.89c-0.74,1.22-0.21,2.52,1.17,2.85c0.93,0.22,1.87,0.37,2.8,0.61
		c1.48,0.38,2.3,1.4,2.36,2.91c0.04,1.04,0.04,2.08,0,3.11c-0.07,1.58-0.91,2.55-2.48,2.92c-0.81,0.19-1.64,0.41-2.46,0.45
		c-1.31,0.06-2.44,1.98-1.35,3.14c0.62,0.66,1.06,1.49,1.52,2.28c0.74,1.24,0.58,2.56-0.4,3.63c-0.57,0.61-1.21,1.16-1.76,1.79
		c-1.18,1.36-2.58,1.6-4.2,0.93c-1.49-1.22-2.93-1.09-4.35,0.15c-0.16,0.14-0.44,0.15-0.67,0.2c-0.97,0.24-1.96,0.34-2.92,0.57
		c-2.18,0.5-2.92,2.48-1.58,4.27c0.86,1.15,1.75,2.26,2.21,3.65c0.07,0.23,0.14,0.46,0.16,0.7c-0.09,1.91-1.34,3.13-2.62,4.32
		c-0.46,0.26-0.79,0.67-1.18,1.01c-1.37,1.2-2.96,1.36-4.53,0.46c-0.83-0.48-1.6-1.05-2.35-1.64c-0.84-0.67-1.8-0.83-2.82-0.53
		c-0.83,0.24-1.36,0.78-1.53,1.66c-0.22,1.13-0.42,2.28-0.7,3.4c-0.51,2-1.88,3.1-3.95,3.17c-1.08,0.03-2.15,0.05-3.23-0.01
		c-2.09-0.11-3.31-1.13-3.82-3.16c-0.21-0.85-0.36-1.72-0.46-2.59c-0.11-0.91-0.5-1.68-1.26-2.22c-0.82-0.57-1.65-0.73-2.54-0.1
		c-0.95,0.66-1.9,1.32-2.89,1.91c-1.86,1.12-3.44,0.93-4.97-0.58c-0.85-0.84-1.72-1.66-2.53-2.55c-1.07-1.18-1.33-2.51-0.6-3.97
		c0.48-0.97,1.05-1.89,1.77-2.69c1.57-1.75,0.62-4.36-1.69-4.56c-1.1-0.09-2.2-0.37-3.27-0.7c-1.66-0.52-2.5-1.61-2.54-3.35
		c-0.03-1.28-0.03-2.55,0-3.83c0.04-1.77,0.9-2.93,2.57-3.48c0.99-0.32,2.01-0.53,3.04-0.61c2.39-0.18,3.51-2.7,2.01-4.44
		c-0.6-0.69-1.05-1.5-1.54-2.28c-1.14-1.83-1.08-3.18,0.31-4.82c0.85-1,1.79-1.93,2.8-2.78c1.34-1.12,2.79-1.25,4.32-0.37
		c0.94,0.54,1.8,1.18,2.68,1.8c1.89,1.31,3.73,0.55,4.22-1.7c0.22-1.01,0.37-2.04,0.64-3.04c0.55-2.01,1.72-2.91,3.8-2.95
		c0.88-0.01,1.75-0.02,2.63,0c0.96,0.02,1.81-0.23,2.48-0.95c0.64-0.66,1.42-1.11,2.22-1.54c1.01-0.29,1.87,0.07,2.69,0.6
		c0.63,0.41,1.24,0.87,1.89,1.24c1,0.58,1.75,0.32,2.16-0.77c0.31-0.82,0.4-1.7,0.61-2.55c0.3-1.21,0.97-2.06,2.18-2.43
		C76.34,0,78.17,0,80.01,0z"/>
	<path d="M87.21,41.42c1.34,0.8,1.54,1.28,1.09,2.86c-1,3.52-2.63,6.73-4.85,9.65c-2.17,2.85-4.36,5.69-5.82,9.01
		c-2.5,5.68-2.74,11.55-1.6,17.56c0.73,3.84,1.58,7.64,3.44,11.13c0.69,1.3,1.55,2.51,2.2,3.82c1.03,2.09,0.37,3.09-1.95,3.11
		c-8.18,0.04-16.36,0.08-24.53,0.12c-5.07,0.02-10.13,0.03-15.2,0.04c-1.83,0-2.09-0.19-2.61-1.95c-1.03-3.47-2.53-6.69-4.96-9.43
		c-0.8-0.9-1.64-1.08-2.76-0.68C25.82,88.01,21.89,89,18,90.15c-3.82,1.13-7.99-0.77-8.64-6.15c-0.18-1.53-0.06-3.03,0.36-4.49
		c0.27-0.95-0.02-1.63-0.85-2.13c-0.34-0.2-0.68-0.42-1.02-0.63c-1.72-1.08-2.02-1.73-1.48-3.67c0.18-0.66,0.04-0.99-0.5-1.38
		c-1.77-1.29-1.97-2.24-0.97-4.19c0.22-0.42,0.46-0.84,0.68-1.26c0.99-1.89,0.85-2.41-0.97-3.44c-0.73-0.41-1.47-0.8-2.17-1.25
		c-2.75-1.76-3.21-3.92-1.26-6.54c3.02-4.07,5.89-8.22,8.11-12.79c0.45-0.92,0.33-1.52-0.4-2.19c-3.43-3.18-3.6-4.08-1.83-8.43
		c1.18-2.92,1.94-5.97,2.87-8.97c3.43-11.06,10.87-17.66,22.19-20c4.92-1.02,9.85-1.92,14.85-2.4c0.19-0.02,0.41,0.03,0.46-0.24
		c2.79,0,5.59,0,8.38,0c0.66,0.28,1.2,0.65,1.2,1.47c-0.05,0.59-0.32,1.08-0.63,1.56c-0.51,0.65-1.24,0.66-1.97,0.64
		C48.82,3.49,43.27,4,37.78,5.14C33.65,6,29.44,6.61,25.6,8.53c-5.84,2.92-9.6,7.64-11.78,13.71c-1.05,2.93-1.55,6.03-2.73,8.92
		c-0.38,0.92-0.73,1.86-1.18,2.75c-0.46,0.9-0.35,1.67,0.4,2.38c0.58,0.55,1.16,1.1,1.68,1.71c1.07,1.27,1.5,2.69,1.02,4.34
		c-0.6,2.1-1.81,3.9-2.86,5.78c-1.58,2.82-3.41,5.49-5.37,8.06c-1.26,1.66-1.18,1.93,0.69,2.94c0.49,0.26,0.99,0.52,1.46,0.81
		c2.58,1.55,3.38,3.66,2.47,6.52c-0.1,0.3-0.2,0.6-0.32,0.9c-0.63,1.57-0.63,1.57,0.68,2.71c1.06,0.93,1.21,1.42,0.69,2.71
		c-0.24,0.59-0.29,1.06,0.33,1.43c2.58,1.56,2.87,3.96,2.3,6.59c-0.28,1.29-0.29,2.52,0.13,3.77c0.58,1.72,1.72,2.44,3.5,2.07
		c3.99-0.84,7.85-2.13,11.71-3.42c3.44-1.15,6.85-2.41,10.29-3.56c1.64-0.55,3.18-1.26,4.59-2.28c1.2-0.86,1.91-1.98,2.17-3.44
		c0.24-1.32,1.27-1.95,2.45-1.57c0.87,0.28,1.27,0.94,1.27,1.82c0.01,2.12-0.86,3.88-2.39,5.29c-2.16,1.98-4.81,3.11-7.52,4.09
		c-1.05,0.38-2.12,0.7-3.16,1.11c-0.68,0.26-0.74,0.59-0.3,1.15c1.98,2.49,3.49,5.24,4.51,8.26c0.33,0.98,1.07,1.23,1.98,1.15
		c5.42-0.49,10.84-0.16,16.26-0.21c5.66-0.06,11.33-0.02,17-0.02c0.45,0,0.96,0.19,1.35-0.21c0.01-0.21-0.07-0.39-0.17-0.57
		c-2.91-5.18-4.05-10.86-4.73-16.68c-1.07-9.08,1.65-16.98,7.27-24.03c2.52-3.17,4.67-6.56,5.67-10.56
		C85.27,41.68,86.01,41.25,87.21,41.42z"/>
	<path class="st0" d="M56.84,1.47C56.83,0.75,56.15,0.5,55.82,0c6.23,0,12.45,0,18.68,0c-1.22,0.74-1.86,1.84-2.05,3.24
		c-0.08,0.63-0.21,1.25-0.38,1.86c-0.34,1.24-1.37,1.66-2.48,1.02c-0.68-0.4-1.33-0.86-1.99-1.3c-0.81-0.55-1.68-0.87-2.68-0.71
		c-0.43,0.23-0.85,0.06-1.26-0.07c-1.84-0.61-3.69-1.17-5.6-1.5C57.45,2.42,56.9,2.23,56.84,1.47z"/>
	<path class="st1" d="M87.21,41.42c-1.19,0.09-1.78,0.73-2.07,1.92c-1,4.08-3.34,7.45-5.88,10.69c-2.32,2.97-4.2,6.18-5.48,9.74
		c-2.16,5.96-2.01,12.02-0.85,18.15c0.88,4.64,2.23,9.11,4.64,13.2c-0.87,0.19-1.74,0.04-2.61,0.09c-0.53,0.03-0.78-0.33-1.01-0.71
		c-0.87-1.39-1.72-2.78-2.29-4.32c-1.98-5.35-3.22-10.85-3.22-16.57c0.01-6.61,2.17-12.51,6.18-17.73c1.07-1.39,2.03-2.86,3.19-4.17
		c0.97-1.24,2.39-2.21,2.47-4.01c0.56-2.31,1.49-4.53,1.75-6.93c0.09-0.89-0.14-1.87,0.63-2.59c0.86-0.29,1.73-0.57,2.26-1.38
		c0.27-0.41,0.55-0.34,0.88-0.1c0.62,0.47,1.25,0.93,1.88,1.4C87.52,39.2,87.37,40.31,87.21,41.42z"/>
	<path class="st2" d="M77.81,51.7c-0.5,1.47-1.54,2.6-2.47,3.77c-4.59,5.73-6.92,12.25-6.52,19.58c0.35,6.55,1.66,12.92,5.02,18.71
		c0.58,1,1.21,1.6,2.43,1.37c0.42-0.08,0.87-0.02,1.31-0.02c-0.33,0.45-0.81,0.21-1.2,0.21c-10.49,0.03-20.99,0.03-31.48,0.04
		c-1.07,0-2.15,0.07-3.22,0.12c-0.88,0.04-1.39-0.32-1.66-1.2c-0.98-3.21-2.59-6.08-4.78-8.62c-0.59-0.68-0.43-0.87,0.35-1.15
		c2.66-0.94,5.4-1.7,7.89-3.09c2.42-1.35,4.57-2.94,5.28-5.85c0.13-0.55,0.2-1.1,0.14-1.66c-0.11-0.93-0.66-1.42-1.6-1.42
		c-0.9,0-1.45,0.48-1.52,1.36c-0.14,1.69-1.02,2.89-2.35,3.83c-0.98,0.69-2,1.34-3.13,1.73c-7.41,2.57-14.74,5.39-22.37,7.29
		c-3.83,0.96-6.08-1.25-5.3-5.18c0.19-0.98,0.48-1.93,0.42-2.95c-0.1-1.81-0.88-3.23-2.47-4.11c-0.77-0.42-1.04-0.77-0.52-1.63
		c0.77-1.27,0.63-1.64-0.58-2.6c-1.52-1.21-1.52-1.21-0.7-3c1.46-3.15,0.67-5.55-2.35-7.23c-0.7-0.39-1.41-0.75-2.08-1.18
		c-1.13-0.72-1.2-1.02-0.39-2.08c2.36-3.12,4.63-6.3,6.49-9.75c0.74-1.37,1.54-2.7,2.1-4.16c0.73-1.88,0.38-3.56-1.07-4.92
		c-3.01-2.83-2.71-2.17-1.07-5.9c1.08-2.46,1.65-5.07,2.38-7.63c2.97-10.4,9.75-16.55,20.39-18.65c7.13-1.41,14.25-2.71,21.56-2.34
		c0.59,0.03,1.1-0.15,1.55-0.5c2.39,0.46,4.71,1.12,6.69,2.63c-0.56,0.92-1.4,1.22-2.44,1.18c-1.08-0.04-2.16-0.04-3.23-0.01
		c-1.67,0.05-2.77,0.93-3.16,2.56c-0.26,1.08-0.47,2.18-0.69,3.27c-0.47,2.43-2.76,3.3-4.76,1.82c-0.8-0.59-1.6-1.19-2.45-1.71
		c-1.68-1.01-2.93-0.85-4.32,0.5c-0.83,0.81-1.65,1.62-2.45,2.46c-1.31,1.36-1.46,2.75-0.47,4.34c0.59,0.95,1.22,1.87,1.85,2.79
		c1.15,1.67,0.43,3.81-1.53,4.36c-1.18,0.33-2.43,0.43-3.62,0.72c-1.86,0.46-2.64,1.51-2.66,3.43c-0.01,1.2-0.05,2.39,0,3.59
		c0.07,1.78,0.91,2.81,2.63,3.23c1.08,0.26,2.18,0.45,3.28,0.67c2.3,0.47,3.18,2.68,1.84,4.64c-0.59,0.85-1.24,1.66-1.78,2.55
		c-1,1.65-0.82,2.96,0.5,4.32c0.84,0.86,1.68,1.71,2.54,2.54c1.22,1.17,2.7,1.32,4.15,0.42c0.98-0.61,1.93-1.27,2.89-1.92
		c1.7-1.16,3.85-0.37,4.37,1.67c0.29,1.15,0.41,2.35,0.69,3.51c0.42,1.75,1.56,2.65,3.33,2.69c1.2,0.03,2.39,0.03,3.59,0
		c1.78-0.04,2.99-1.05,3.38-2.79c0.23-1.05,0.45-2.1,0.66-3.16c0.44-2.3,2.79-3.22,4.7-1.8c0.77,0.57,1.51,1.18,2.34,1.66
		c1.82,1.07,3.09,0.92,4.64-0.54C77.09,52.19,77.37,51.84,77.81,51.7z"/>
	<path class="st3" d="M75.27,28.96c0.67,0.79,1.61,0.91,2.55,1.07c0.42,0.07,0.82,0.26,1.23,0.39c0.6,1.66,0.61,3.33,0,4.99
		c-0.87,0.2-1.74,0.39-2.6,0.62c-0.5,0.13-0.89,0.46-1.22,0.85c-0.49,0.56-1.19,0.6-1.85,0.74c-0.31,0.07-0.68,0.01-0.92,0.22
		c-1.09,0.94-1.07,2.44-1.74,3.6c-0.31,0.55,0.1,1.07,0.41,1.54c0.78,1.2,1.64,2.36,2.36,3.6c0.64,1.09,0.41,2.18-0.49,2.74
		c-0.14,0.09-0.3,0.09-0.46,0.03c-0.94-0.59-1.92-1.14-2.82-1.78c-0.87-0.62-1.68-0.76-2.65-0.18c-0.96,0.57-1.99,1-3.08,1.27
		c-0.95,0.24-1.49,0.85-1.66,1.81c-0.26,1.45-0.57,2.89-0.82,4.34c-0.14,0.79-0.51,1.13-1.36,1.14c-2.83,0.05-2.75,0.06-3.39-2.72
		c-0.96-4.19,0.13-3.88-4.15-5.29c-0.37-0.12-0.72-0.34-1.06-0.54c-0.92-0.56-1.79-0.49-2.67,0.13c-1.17,0.83-2.39,1.59-3.56,2.41
		c-0.61,0.43-1.05,0.45-1.66-0.11c-2.2-2.03-2.15-1.96-0.51-4.47c2.25-3.44,2.56-2.64,0.89-6.48c-0.88-2.03-1.87-3.18-4.05-3.25
		c-0.31-0.01-0.62-0.13-0.93-0.2c-3.34-0.78-2.75,0.12-2.85-3.5c-0.02-0.83,0.36-1.13,1.08-1.26c1.33-0.24,2.65-0.56,3.99-0.76
		c1.25-0.18,2.03-0.76,2.33-2.03c0.22-0.97,0.64-1.89,1.15-2.75c0.55-0.93,0.48-1.78-0.15-2.66c-0.84-1.16-1.59-2.39-2.42-3.56
		c-0.48-0.68-0.41-1.18,0.2-1.76c2.04-1.94,2-1.92,4.37-0.4c3.17,2.03,2.8,2.93,6.56,0.76c0.34-0.19,0.75-0.26,1.13-0.36
		c1.09-0.28,1.68-0.95,1.85-2.07c0.21-1.38,0.55-2.73,0.78-4.11c0.14-0.84,0.48-1.33,1.42-1.18c0.19,0.03,0.4,0,0.6,0
		c2.04,0.01,2.21,0.14,2.62,2.12c0.24,1.13,0.43,2.27,0.64,3.4c0.16,0.91,0.65,1.5,1.57,1.75c1.16,0.31,2.26,0.77,3.3,1.37
		c0.81,0.46,1.57,0.4,2.35-0.13c0.95-0.65,1.95-1.23,2.93-1.84c1.3,0.3,1.75,1.19,1.16,2.35c-0.63,1.24-1.41,2.41-2.28,3.5
		c-0.77,0.98-1.03,1.94-0.28,3.05c0.2,0.29,0.32,0.65,0.4,0.99c0.25,1.12,0.96,1.68,2.08,1.81C74.23,28.25,74.84,28.42,75.27,28.96z
		"/>
	<path class="st4" d="M84.82,14.6c-4.73-4.56-11.48-3.54-15.52,0.06c-1.16,1.03-3.79,0.08-4.1-1.44c-0.23-1.13-0.44-2.27-0.7-3.39
		c-0.18-0.8,0.05-1.41,0.69-1.89c0.67-0.51,1.01,0.19,1.43,0.43c0.73,0.41,1.39,0.93,2.09,1.39c0.16,0.11,0.33,0.23,0.5,0.32
		c1.52,0.8,5.72-1.21,6.05-2.89c0.19-0.98,0.44-1.94,0.58-2.93c0.11-0.81,0.57-1.09,1.3-1.06c0.75,0.04,1.56-0.04,1.74,1.02
		c0.18,1.06,0.45,2.1,0.64,3.16c0.15,0.83,0.58,1.38,1.4,1.6c0.19,0.05,0.41,0.07,0.57,0.18c2.14,1.45,4.19,1.34,6.17-0.32
		c0.47,0.54,0.35,1.15,0.06,1.68c-0.75,1.36-1.74,2.57-2.5,3.93C85.15,14.59,84.99,14.64,84.82,14.6z"/>
	<path class="st5" d="M78.67,14.93c2.83,0.6,4.63,2.16,5.31,4.78c0.67,2.6-0.07,4.9-2.06,6.73c-1.17,1.08-2.62,1.03-3.87-0.06
		c-1.04-0.91-1.23-2.48-0.41-3.7c0.33-0.49,0.74-0.94,1.08-1.43C80.68,18.4,80.68,17.87,78.67,14.93z"/>
	<path class="st6" d="M72.54,49.36c1.24-0.96,1.37-1.61,0.53-2.9c-0.8-1.23-1.62-2.44-2.43-3.66c-0.15-0.23-0.4-0.47-0.4-0.71
		c-0.01-1.12,0.91-1.92,1.09-2.97c0.21-1.26,0.87-1.84,2.18-1.82c0.57,0.01,1.15-0.27,1.72-0.42c-0.16,1.29-0.67,2.46-1.3,3.56
		c-0.64,1.12-0.55,2.07,0.21,3.09c0.84,1.11,1.56,2.31,2.36,3.45c0.42,0.59,0.46,1.06-0.2,1.51c-0.26,0.17-0.46,0.44-0.67,0.68
		C74.32,50.64,74.03,50.66,72.54,49.36z"/>
	<path class="st6" d="M75.27,28.96c-0.88-0.23-1.75-0.49-2.64-0.68c-0.43-0.09-0.77-0.27-0.94-0.64c-0.5-1.12-0.99-2.25-1.44-3.39
		c-0.2-0.5,0.11-0.92,0.38-1.32c0.81-1.22,1.64-2.43,2.44-3.65c0.94-1.44,0.87-1.73-0.56-2.79c0.54-0.53,1.12-1.27,1.92-0.85
		c0.97,0.52,1.83,1.28,2.21,2.39c0.14,0.41-0.16,0.76-0.38,1.09c-0.73,1.09-1.41,2.22-2.21,3.26c-0.71,0.94-0.84,1.78-0.21,2.83
		C74.53,26.36,75.03,27.62,75.27,28.96z"/>
	<path class="st2" d="M82.66,38.18c-0.34,2.72-0.61,5.46-1.65,8.03c-0.21,0.51-0.34,1.06-0.73,1.49c-0.35-1.6-1.31-2.87-2.3-4.11
		c-1.63-2.05-0.8-4.4,1.75-4.89C80.71,38.51,81.68,38.35,82.66,38.18z"/>
	<path class="st7" d="M89.78,24.66c-0.14,1.04-0.56,1.97-1.09,2.86c-0.45,0.76-0.42,1.49,0.09,2.22c0.63,0.91,1.21,1.86,1.86,2.75
		c0.41,0.56,0.39,1-0.12,1.44c-0.54,0.46-0.96,1.3-1.88,0.76c-0.44-0.25-0.82-0.61-1.22-0.92c0.23-0.62,0.03-1.17-0.34-1.66
		c-0.53-0.71-0.81-1.6-1.59-2.13c-0.95-1.05-0.98-1.95,0.14-3c0.62-0.58,0.89-1.55,1.31-2.34C87.89,24.83,88.84,24.07,89.78,24.66z"
		/>
	<path class="st7" d="M84.82,14.6c0.79-1.35,1.58-2.7,2.54-3.94c0.42-0.54,0.32-1.19,0.31-1.82c1.31-1.12,1.83-1.15,2.72-0.25
		c0.58,0.6,0.72,1.15,0.16,1.86c-0.59,0.74-1.05,1.59-1.61,2.35c-0.65,0.86-0.74,1.69-0.15,2.63c0.53,0.84,0.88,1.77,1.01,2.77
		c-0.99,0.46-1.89-0.28-2.86-0.21C86.22,16.87,85.52,15.73,84.82,14.6z"/>
	<path class="st8" d="M86.93,18c1.01-0.72,1.89,0.29,2.86,0.21c0.5,0.83,1.37,0.98,2.19,1.23c0.87,1.22,0.8,2.49,0.24,3.8
		c-0.85,0.42-2.01,0.31-2.44,1.43c-0.78,0.09-1.57,0.16-2.35,0.29c-0.31,0.05-0.45-0.01-0.49-0.31C87.53,22.43,87.52,20.22,86.93,18
		z"/>
	<path class="st9" d="M79.05,35.42c0-1.66,0-3.33,0-4.99c0.08-0.01,0.16-0.03,0.24-0.02c3.02,0.21,3.51,0.82,3.07,3.79
		c-0.07,0.44-0.25,0.72-0.73,0.79C80.76,35.11,79.9,35.27,79.05,35.42z"/>
	<path class="st10" d="M62.98,5.52c-2.23-0.88-4.46-1.76-6.69-2.63c0.18-0.47,0.36-0.94,0.55-1.41c0.26,0.27,0.4,0.62,0.88,0.69
		c2.48,0.35,4.83,1.18,7.2,1.94C64.28,4.57,63.63,5.05,62.98,5.52z"/>
	<path class="st11" d="M92.22,23.24c-0.01-1.27,0.09-2.55-0.24-3.8c0.73,0.13,1.46,0.3,2.2,0.39c1.03,0.12,1.38,0.65,1.39,1.67
		c0.01,0.94-0.31,1.39-1.24,1.47C93.62,23.02,92.92,23.14,92.22,23.24z"/>
	<path class="st12" d="M85.49,29.98c0.06-0.15,0.13-0.53,0.3-0.28c0.74,1.06,1.58,2.08,2.06,3.3c0.14,0.36,0.07,0.72-0.43,0.77
		C85.31,33.26,85.51,31.57,85.49,29.98z"/>
	<path d="M15.52,27.23c0.76-3.86,2.3-7.56,4.86-10.83c3.63-4.63,8.67-6.56,14.21-7.55c1.26-0.22,1.99,0.28,2.22,1.27
		c0.22,0.95-0.29,1.63-1.57,2c-1.72,0.5-3.5,0.77-5.18,1.41c-5.92,2.23-9.13,6.79-10.85,12.63c-0.17,0.57-0.35,1.15-0.45,1.73
		c-0.11,0.7-0.27,1.35-1.16,1.06C16.77,28.68,15.43,29.01,15.52,27.23z"/>
	<path class="st13" d="M16.52,34.56c-0.03,0.91-0.84,1.67-1.73,1.62c-0.88-0.04-1.67-0.88-1.59-1.76c0.09-1,0.75-1.48,1.67-1.56
		C15.76,32.8,16.55,33.66,16.52,34.56z"/>
	<path d="M59.27,44.4c-6.38-0.02-11.47-5.06-11.55-11.43c-0.08-6.27,5.18-11.55,11.55-11.62c6.28-0.07,11.58,5.22,11.6,11.56
		C70.89,39.28,65.7,44.42,59.27,44.4z"/>
	<path class="st5" d="M51.03,32.9c0-4.63,3.65-8.24,8.3-8.23c4.54,0.01,8.19,3.69,8.18,8.24c-0.01,4.6-3.71,8.27-8.31,8.25
		C54.66,41.13,51.03,37.46,51.03,32.9z"/>
	<path class="st14" d="M57.62,32.74c0.09-0.9,0.95-1.62,1.85-1.47c0.95,0.16,1.49,0.74,1.46,1.73c-0.03,0.97-0.91,1.64-1.91,1.51
		C58.16,34.41,57.54,33.62,57.62,32.74z"/>
</g>
</svg>
